M48
; DRILL file {KiCad 9.0.7} date 2026-03-24T13:48:14+0530
; FORMAT={-:-/ absolute / metric / decimal}
; #@! TF.CreationDate,2026-03-24T13:48:14+05:30
; #@! TF.GenerationSoftware,Kicad,Pcbnew,9.0.7
; #@! TF.FileFunction,NonPlated,1,2,NPTH
FMAT,2
METRIC
; #@! TA.AperFunction,NonPlated,NPTH,ComponentDrill
T1C1.700
; #@! TA.AperFunction,NonPlated,NPTH,ComponentDrill
T2C4.000
%
G90
G05
T1
X109.42Y-81.0
X109.42Y-100.0
X109.42Y-119.0
X119.58Y-81.0
X119.58Y-100.0
X119.58Y-119.0
X128.42Y-81.0
X128.42Y-100.0
X128.42Y-119.0
X138.58Y-81.0
X138.58Y-100.0
X138.58Y-119.0
X147.42Y-81.0
X147.42Y-100.0
X147.42Y-119.0
X157.58Y-81.0
X157.58Y-100.0
X157.58Y-119.0
T2
X114.5Y-81.0
X114.5Y-100.0
X114.5Y-119.0
X133.5Y-81.0
X133.5Y-100.0
X133.5Y-119.0
X152.5Y-81.0
X152.5Y-100.0
X152.5Y-119.0
M30
