M48
; DRILL file {KiCad 9.0.7} date 2026-03-24T13:48:14+0530
; FORMAT={-:-/ absolute / metric / decimal}
; #@! TF.CreationDate,2026-03-24T13:48:14+05:30
; #@! TF.GenerationSoftware,Kicad,Pcbnew,9.0.7
; #@! TF.FileFunction,Plated,1,2,PTH
FMAT,2
METRIC
; #@! TA.AperFunction,Plated,PTH,ViaDrill
T1C0.305
; #@! TA.AperFunction,Plated,PTH,ComponentDrill
T2C0.800
; #@! TA.AperFunction,Plated,PTH,ComponentDrill
T3C1.000
; #@! TA.AperFunction,Plated,PTH,ComponentDrill
T4C1.500
; #@! TA.AperFunction,Plated,PTH,ComponentDrill
T5C2.000
%
G90
G05
T1
X102.124Y-71.616
X102.124Y-79.871
X102.124Y-87.754
X102.124Y-95.637
X105.457Y-131.376
X108.102Y-117.896
X108.477Y-101.437
X108.911Y-90.589
X109.094Y-77.302
X109.101Y-109.828
X113.34Y-131.376
X113.66Y-83.745
X114.554Y-68.624
X116.569Y-120.988
X118.573Y-104.762
X118.996Y-95.142
X121.112Y-80.221
X121.224Y-131.375
X121.476Y-111.741
X122.437Y-68.624
X127.819Y-91.41
X128.043Y-115.381
X128.819Y-76.693
X129.107Y-131.375
X130.122Y-99.757
X130.321Y-68.624
X131.806Y-83.324
X132.749Y-121.777
X134.025Y-110.717
X134.943Y-92.095
X136.99Y-131.375
X137.036Y-102.193
X137.969Y-94.518
X138.008Y-79.379
X138.204Y-68.624
X144.873Y-131.375
X146.087Y-68.624
X146.952Y-110.337
X147.324Y-77.042
X147.43Y-120.719
X148.258Y-92.423
X152.757Y-131.375
X153.958Y-102.472
X153.97Y-68.624
X154.595Y-79.038
X154.877Y-117.391
X156.135Y-86.504
X157.692Y-108.753
X157.729Y-94.696
X161.854Y-68.624
X163.746Y-78.894
X164.413Y-91.802
X165.903Y-109.873
X167.088Y-117.694
X167.535Y-131.375
X169.656Y-68.679
X171.462Y-82.444
X171.746Y-100.169
X174.723Y-116.467
X175.419Y-131.375
X175.552Y-96.908
X175.633Y-79.682
X175.853Y-75.561
X176.668Y-78.78
X177.159Y-123.492
X177.376Y-93.269
X178.126Y-108.617
X178.545Y-79.783
X180.635Y-84.587
X181.372Y-96.766
X182.577Y-116.332
X183.302Y-131.375
X185.939Y-100.694
X187.5Y-78.77
X188.75Y-86.18
X190.043Y-68.624
X193.876Y-95.979
X193.876Y-103.862
X193.876Y-111.746
X193.876Y-119.629
X193.876Y-127.512
T2
X110.58Y-90.5
X110.77Y-71.5
X110.77Y-109.5
X118.2Y-90.5
X118.39Y-71.5
X118.39Y-109.5
X129.58Y-109.5
X129.77Y-71.5
X129.77Y-90.5
X137.2Y-109.5
X137.39Y-71.5
X137.39Y-90.5
X148.58Y-109.5
X148.77Y-71.5
X148.77Y-90.5
X156.2Y-109.5
X156.39Y-71.5
X156.39Y-90.5
T3
X170.0Y-94.5
X170.0Y-97.0
X170.0Y-99.5
X171.26Y-71.25
X171.26Y-86.5
X173.19Y-107.0
X173.8Y-71.25
X173.8Y-86.5
X175.73Y-107.0
X176.34Y-71.25
X176.34Y-86.5
X178.27Y-107.0
X178.88Y-71.25
X178.88Y-86.5
X180.81Y-107.0
X181.42Y-71.25
X181.42Y-86.5
X183.96Y-71.25
X183.96Y-86.5
X184.5Y-94.5
X184.5Y-99.5
X186.5Y-71.25
X186.5Y-86.5
T4
X110.69Y-78.46
X110.69Y-97.46
X110.69Y-116.46
X117.04Y-75.92
X117.04Y-94.92
X117.04Y-113.92
X129.69Y-78.46
X129.69Y-97.46
X129.69Y-116.46
X136.04Y-75.92
X136.04Y-94.92
X136.04Y-113.92
X148.69Y-78.46
X148.69Y-97.46
X148.69Y-116.46
X155.04Y-75.92
X155.04Y-94.92
X155.04Y-113.92
T5
X166.0Y-107.5
X166.0Y-129.5
X188.0Y-107.5
X188.0Y-129.5
T4
X176.85Y-91.4G85X178.15Y-91.4
G05
X176.85Y-102.6G85X178.15Y-102.6
G05
M30
